# xmcd
#
# Track frame offsets: 
#        150
#        26428
#        51170
#        81472
#        102164
#        124852
#        142678
#        166775
#        191342
#        217872
#        252231
#        275650
#        299751
#
# Disc length: 4277 seconds
#
# Revision: 0
# Processed by: cddbd v1.5.2PL0 Copyright (c) Steve Scherf et al.
# Submitted via: ExactAudioCopyFreeDBPlugin 1.0
#
DISCID=b810b30d
DTITLE=Sirius B Project - Sirius B Project
DYEAR=2003
DGENRE=Soul
TTITLE0=Love Has A Place In Time
TTITLE1=Autumn Breeze
TTITLE2=Midnight Silhouette
TTITLE3=Mahogany Boy
TTITLE4=You Say
TTITLE5=Roll
TTITLE6=Intuition
TTITLE7=Always Remember feat. Donnie
TTITLE8=With You
TTITLE9=Believe
TTITLE10=Ain't Easy
TTITLE11=Calling
TTITLE12=Love Has A Place In Time (Seventy3 Mix)
EXTD=
EXTT0=
EXTT1=
EXTT2=
EXTT3=
EXTT4=
EXTT5=
EXTT6=
EXTT7=
EXTT8=
EXTT9=
EXTT10=
EXTT11=
EXTT12=
PLAYORDER=
